<?xml version="1.0" encoding="UTF-8"?>
<!DOCTYPE svg PUBLIC "-//W3C//DTD SVG 1.1//EN" "http://www.w3.org/Graphics/SVG/1.1/DTD/svg11.dtd">
<!-- Creator: CorelDRAW 2021 (64-Bit) -->
<svg xmlns="http://www.w3.org/2000/svg" xml:space="preserve" width="8.36772in" height="6.37442in" version="1.1" style="shape-rendering:geometricPrecision; text-rendering:geometricPrecision; image-rendering:optimizeQuality; fill-rule:evenodd; clip-rule:evenodd"
viewBox="0 0 2925.12 2228.32"
 xmlns:xlink="http://www.w3.org/1999/xlink"
 xmlns:xodm="http://www.corel.com/coreldraw/odm/2003">
 <defs>
  <style type="text/css">
   <![CDATA[
    .fil2 {fill:#D32E2A;fill-rule:nonzero}
    .fil1 {fill:#F14336;fill-rule:nonzero}
    .fil0 {fill:#F2F2F2;fill-rule:nonzero}
   ]]>
  </style>
 </defs>
 <g id="Layer_x0020_1">
  <metadata id="CorelCorpID_0Corel-Layer"/>
  <g id="_2360454662544">
   <g>
    <polygon class="fil0" points="2770.71,353.21 2583.98,2228.31 341.14,2228.31 190.7,389.5 1462.56,1101.6 "/>
    <polygon class="fil0" points="2707.37,0 1462.56,1169.34 217.75,0 1462.56,0 "/>
   </g>
   <path class="fil1" d="M341.14 539.95l0 1688.36 -203.23 0c-76.14,0 -137.91,-61.76 -137.91,-137.91l0 -1799.12 222.81 6.07 118.33 242.6z"/>
   <path class="fil2" d="M2925.12 291.28l0 1799.13c0,76.14 -61.77,137.91 -137.98,137.91l-203.16 0 0 -1688.37 112.5 -265.8 228.64 17.13z"/>
   <path class="fil1" d="M2925.12 137.91l0 153.37 -341.14 248.67 -1121.42 817.36 -1121.42 -817.36 -341.14 -248.67 0 -153.37c0,-76.14 61.77,-137.91 137.91,-137.91l79.84 0 1244.81 907.29 1244.81 -907.29 79.77 0c76.21,0 137.98,61.76 137.98,137.91z"/>
   <polygon class="fil2" points="341.14,539.95 -0,487.06 -0,291.28 "/>
   <g>
   </g>
   <g>
   </g>
   <g>
   </g>
   <g>
   </g>
   <g>
   </g>
   <g>
   </g>
   <g>
   </g>
   <g>
   </g>
   <g>
   </g>
   <g>
   </g>
   <g>
   </g>
   <g>
   </g>
   <g>
   </g>
   <g>
   </g>
   <g>
   </g>
  </g>
 </g>
</svg>
